<?xml version="1.0" encoding="UTF-8" standalone="no"?>
<!DOCTYPE svg PUBLIC "-//W3C//DTD SVG 1.1//EN"
 "http://www.w3.org/Graphics/SVG/1.1/DTD/svg11.dtd">
<!-- Generated by graphviz version 2.47.0 (20210316.0004)
 -->
<!-- Title: dependencies Pages: 1 -->
<svg width="1379pt" height="284pt"
 viewBox="0.00 0.00 1379.00 284.00" xmlns="http://www.w3.org/2000/svg" xmlns:xlink="http://www.w3.org/1999/xlink">
<g id="graph0" class="graph" transform="scale(1 1) rotate(0) translate(4 280)">
<title>dependencies</title>
<polygon fill="white" stroke="transparent" points="-4,4 -4,-280 1375,-280 1375,4 -4,4"/>
<text text-anchor="start" x="664.51" y="-42.4" font-family="Times-12" font-weight="bold" font-size="14.00">Legend</text>
<polygon fill="#ffffb3" stroke="transparent" points="451.5,-10 451.5,-30 471.5,-30 471.5,-10 451.5,-10"/>
<text text-anchor="start" x="475.13" y="-15.4" font-family="Times-12" font-size="14.00"> &#160;Declarations</text>
<polygon fill="#8dd3c7" stroke="transparent" points="564.5,-10 564.5,-30 584.5,-30 584.5,-10 564.5,-10"/>
<text text-anchor="start" x="588.23" y="-15.4" font-family="Times-12" font-size="14.00"> &#160;Module</text>
<polygon fill="#80b1d3" stroke="transparent" points="650.5,-10 650.5,-30 670.5,-30 670.5,-10 650.5,-10"/>
<text text-anchor="start" x="674.28" y="-15.4" font-family="Times-12" font-size="14.00"> &#160;Bootstrap</text>
<polygon fill="#fdb462" stroke="transparent" points="747.5,-10 747.5,-30 767.5,-30 767.5,-10 747.5,-10"/>
<text text-anchor="start" x="771.17" y="-15.4" font-family="Times-12" font-size="14.00"> &#160;Providers</text>
<polygon fill="#fb8072" stroke="transparent" points="843.5,-10 843.5,-30 863.5,-30 863.5,-10 843.5,-10"/>
<text text-anchor="start" x="867.23" y="-15.4" font-family="Times-12" font-size="14.00"> &#160;Exports</text>
<g id="clust1" class="cluster">
<title>cluster_AppModule</title>
<polygon fill="none" stroke="black" stroke-dasharray="1,5" points="8,-70 8,-268 1363,-268 1363,-70 8,-70"/>
</g>
<g id="clust12" class="cluster">
<title>cluster_AppModule_bootstrap</title>
<polygon fill="none" stroke="black" points="654,-208 654,-260 778,-260 778,-208 654,-208"/>
</g>
<g id="clust10" class="cluster">
<title>cluster_AppModule_imports</title>
<polygon fill="none" stroke="black" points="1211,-78 1211,-130 1355,-130 1355,-78 1211,-78"/>
</g>
<g id="clust2" class="cluster">
<title>cluster_AppModule_declarations</title>
<polygon fill="none" stroke="black" points="16,-78 16,-130 1203,-130 1203,-78 16,-78"/>
</g>
<!-- AppComponent -->
<g id="node1" class="node">
<title>AppComponent</title>
<polygon fill="#ffffb3" stroke="black" points="1194.94,-122 1089.06,-122 1089.06,-86 1194.94,-86 1194.94,-122"/>
<text text-anchor="middle" x="1142" y="-99.8" font-family="Times,serif" font-size="14.00">AppComponent</text>
</g>
<!-- AppModule -->
<g id="node8" class="node">
<title>AppModule</title>
<polygon fill="#8dd3c7" stroke="black" points="757.66,-187 754.66,-191 733.66,-191 730.66,-187 674.34,-187 674.34,-151 757.66,-151 757.66,-187"/>
<text text-anchor="middle" x="716" y="-164.8" font-family="Times,serif" font-size="14.00">AppModule</text>
</g>
<!-- AppComponent&#45;&gt;AppModule -->
<g id="edge1" class="edge">
<title>AppComponent&#45;&gt;AppModule</title>
<path fill="none" stroke="black" d="M1142,-122.11C1142,-141.34 1142,-169 1142,-169 1142,-169 768.01,-169 768.01,-169"/>
<polygon fill="black" stroke="black" points="768.01,-165.5 758.01,-169 768.01,-172.5 768.01,-165.5"/>
</g>
<!-- ClienteCadastrarComponent -->
<g id="node2" class="node">
<title>ClienteCadastrarComponent</title>
<polygon fill="#ffffb3" stroke="black" points="1071.91,-122 896.09,-122 896.09,-86 1071.91,-86 1071.91,-122"/>
<text text-anchor="middle" x="984" y="-99.8" font-family="Times,serif" font-size="14.00">ClienteCadastrarComponent</text>
</g>
<!-- ClienteCadastrarComponent&#45;&gt;AppModule -->
<g id="edge2" class="edge">
<title>ClienteCadastrarComponent&#45;&gt;AppModule</title>
<path fill="none" stroke="black" d="M984,-122.03C984,-138.4 984,-160 984,-160 984,-160 767.88,-160 767.88,-160"/>
<polygon fill="black" stroke="black" points="767.88,-156.5 757.88,-160 767.87,-163.5 767.88,-156.5"/>
</g>
<!-- ClienteListarComponent -->
<g id="node3" class="node">
<title>ClienteListarComponent</title>
<polygon fill="#ffffb3" stroke="black" points="878.42,-122 723.58,-122 723.58,-86 878.42,-86 878.42,-122"/>
<text text-anchor="middle" x="801" y="-99.8" font-family="Times,serif" font-size="14.00">ClienteListarComponent</text>
</g>
<!-- ClienteListarComponent&#45;&gt;AppModule -->
<g id="edge3" class="edge">
<title>ClienteListarComponent&#45;&gt;AppModule</title>
<path fill="none" stroke="black" d="M740.81,-122.11C740.81,-122.11 740.81,-140.99 740.81,-140.99"/>
<polygon fill="black" stroke="black" points="737.31,-140.99 740.81,-150.99 744.31,-140.99 737.31,-140.99"/>
</g>
<!-- MenuInicialComponent -->
<g id="node4" class="node">
<title>MenuInicialComponent</title>
<polygon fill="#ffffb3" stroke="black" points="705.75,-122 556.25,-122 556.25,-86 705.75,-86 705.75,-122"/>
<text text-anchor="middle" x="631" y="-99.8" font-family="Times,serif" font-size="14.00">MenuInicialComponent</text>
</g>
<!-- MenuInicialComponent&#45;&gt;AppModule -->
<g id="edge4" class="edge">
<title>MenuInicialComponent&#45;&gt;AppModule</title>
<path fill="none" stroke="black" d="M690.02,-122.11C690.02,-122.11 690.02,-140.99 690.02,-140.99"/>
<polygon fill="black" stroke="black" points="686.52,-140.99 690.02,-150.99 693.52,-140.99 686.52,-140.99"/>
</g>
<!-- OrcamentoComponent -->
<g id="node5" class="node">
<title>OrcamentoComponent</title>
<polygon fill="#ffffb3" stroke="black" points="537.53,-122 394.47,-122 394.47,-86 537.53,-86 537.53,-122"/>
<text text-anchor="middle" x="466" y="-99.8" font-family="Times,serif" font-size="14.00">OrcamentoComponent</text>
</g>
<!-- OrcamentoComponent&#45;&gt;AppModule -->
<g id="edge5" class="edge">
<title>OrcamentoComponent&#45;&gt;AppModule</title>
<path fill="none" stroke="black" d="M466,-122.03C466,-138.4 466,-160 466,-160 466,-160 664.16,-160 664.16,-160"/>
<polygon fill="black" stroke="black" points="664.16,-163.5 674.16,-160 664.16,-156.5 664.16,-163.5"/>
</g>
<!-- ServicoCadastrarComponent -->
<g id="node6" class="node">
<title>ServicoCadastrarComponent</title>
<polygon fill="#ffffb3" stroke="black" points="375.73,-122 198.27,-122 198.27,-86 375.73,-86 375.73,-122"/>
<text text-anchor="middle" x="287" y="-99.8" font-family="Times,serif" font-size="14.00">ServicoCadastrarComponent</text>
</g>
<!-- ServicoCadastrarComponent&#45;&gt;AppModule -->
<g id="edge6" class="edge">
<title>ServicoCadastrarComponent&#45;&gt;AppModule</title>
<path fill="none" stroke="black" d="M287,-122.11C287,-141.34 287,-169 287,-169 287,-169 664.08,-169 664.08,-169"/>
<polygon fill="black" stroke="black" points="664.08,-172.5 674.08,-169 664.08,-165.5 664.08,-172.5"/>
</g>
<!-- ServicoListarComponent -->
<g id="node7" class="node">
<title>ServicoListarComponent</title>
<polygon fill="#ffffb3" stroke="black" points="180.25,-122 23.75,-122 23.75,-86 180.25,-86 180.25,-122"/>
<text text-anchor="middle" x="102" y="-99.8" font-family="Times,serif" font-size="14.00">ServicoListarComponent</text>
</g>
<!-- ServicoListarComponent&#45;&gt;AppModule -->
<g id="edge7" class="edge">
<title>ServicoListarComponent&#45;&gt;AppModule</title>
<path fill="none" stroke="black" d="M102,-122.29C102,-144.21 102,-178 102,-178 102,-178 664.28,-178 664.28,-178"/>
<polygon fill="black" stroke="black" points="664.28,-181.5 674.28,-178 664.28,-174.5 664.28,-181.5"/>
</g>
<!-- AppComponent  -->
<g id="node10" class="node">
<title>AppComponent </title>
<polygon fill="#80b1d3" stroke="black" points="770.44,-252 661.56,-252 661.56,-216 770.44,-216 770.44,-252"/>
<text text-anchor="middle" x="716" y="-229.8" font-family="Times,serif" font-size="14.00">AppComponent </text>
</g>
<!-- AppModule&#45;&gt;AppComponent  -->
<g id="edge9" class="edge">
<title>AppModule&#45;&gt;AppComponent </title>
<path fill="none" stroke="black" stroke-dasharray="1,5" d="M716,-187.11C716,-187.11 716,-205.99 716,-205.99"/>
<polygon fill="black" stroke="black" points="712.5,-205.99 716,-215.99 719.5,-205.99 712.5,-205.99"/>
</g>
<!-- AppRoutingModule -->
<g id="node9" class="node">
<title>AppRoutingModule</title>
<polygon fill="#8dd3c7" stroke="black" points="1347.27,-122 1344.27,-126 1323.27,-126 1320.27,-122 1218.73,-122 1218.73,-86 1347.27,-86 1347.27,-122"/>
<text text-anchor="middle" x="1283" y="-99.8" font-family="Times,serif" font-size="14.00">AppRoutingModule</text>
</g>
<!-- AppRoutingModule&#45;&gt;AppModule -->
<g id="edge8" class="edge">
<title>AppRoutingModule&#45;&gt;AppModule</title>
<path fill="none" stroke="black" d="M1283,-122.29C1283,-144.21 1283,-178 1283,-178 1283,-178 767.69,-178 767.69,-178"/>
<polygon fill="black" stroke="black" points="767.69,-174.5 757.69,-178 767.69,-181.5 767.69,-174.5"/>
</g>
</g>
</svg>
