<?xml version="1.0" encoding="UTF-8" standalone="no"?>
<!DOCTYPE svg PUBLIC "-//W3C//DTD SVG 1.1//EN"
 "http://www.w3.org/Graphics/SVG/1.1/DTD/svg11.dtd">
<!-- Generated by graphviz version 2.47.0 (20210316.0004)
 -->
<!-- Title: dependencies Pages: 1 -->
<svg width="1217pt" height="284pt"
 viewBox="0.00 0.00 1217.00 284.00" xmlns="http://www.w3.org/2000/svg" xmlns:xlink="http://www.w3.org/1999/xlink">
<g id="graph0" class="graph" transform="scale(1 1) rotate(0) translate(4 280)">
<title>dependencies</title>
<polygon fill="white" stroke="transparent" points="-4,4 -4,-280 1213,-280 1213,4 -4,4"/>
<text text-anchor="start" x="583.51" y="-42.4" font-family="Times-12" font-weight="bold" font-size="14.00">Legend</text>
<polygon fill="#ffffb3" stroke="transparent" points="370.5,-10 370.5,-30 390.5,-30 390.5,-10 370.5,-10"/>
<text text-anchor="start" x="394.13" y="-15.4" font-family="Times-12" font-size="14.00"> &#160;Declarations</text>
<polygon fill="#8dd3c7" stroke="transparent" points="483.5,-10 483.5,-30 503.5,-30 503.5,-10 483.5,-10"/>
<text text-anchor="start" x="507.23" y="-15.4" font-family="Times-12" font-size="14.00"> &#160;Module</text>
<polygon fill="#80b1d3" stroke="transparent" points="569.5,-10 569.5,-30 589.5,-30 589.5,-10 569.5,-10"/>
<text text-anchor="start" x="593.28" y="-15.4" font-family="Times-12" font-size="14.00"> &#160;Bootstrap</text>
<polygon fill="#fdb462" stroke="transparent" points="666.5,-10 666.5,-30 686.5,-30 686.5,-10 666.5,-10"/>
<text text-anchor="start" x="690.17" y="-15.4" font-family="Times-12" font-size="14.00"> &#160;Providers</text>
<polygon fill="#fb8072" stroke="transparent" points="762.5,-10 762.5,-30 782.5,-30 782.5,-10 762.5,-10"/>
<text text-anchor="start" x="786.23" y="-15.4" font-family="Times-12" font-size="14.00"> &#160;Exports</text>
<g id="clust1" class="cluster">
<title>cluster_AppModule</title>
<polygon fill="none" stroke="black" stroke-dasharray="1,5" points="8,-70 8,-268 1201,-268 1201,-70 8,-70"/>
</g>
<g id="clust9" class="cluster">
<title>cluster_AppModule_imports</title>
<polygon fill="none" stroke="black" points="1049,-78 1049,-130 1193,-130 1193,-78 1049,-78"/>
</g>
<g id="clust11" class="cluster">
<title>cluster_AppModule_bootstrap</title>
<polygon fill="none" stroke="black" points="577,-208 577,-260 701,-260 701,-208 577,-208"/>
</g>
<g id="clust2" class="cluster">
<title>cluster_AppModule_declarations</title>
<polygon fill="none" stroke="black" points="16,-78 16,-130 1041,-130 1041,-78 16,-78"/>
</g>
<!-- AppComponent -->
<g id="node1" class="node">
<title>AppComponent</title>
<polygon fill="#ffffb3" stroke="black" points="1032.94,-122 927.06,-122 927.06,-86 1032.94,-86 1032.94,-122"/>
<text text-anchor="middle" x="980" y="-99.8" font-family="Times,serif" font-size="14.00">AppComponent</text>
</g>
<!-- AppModule -->
<g id="node7" class="node">
<title>AppModule</title>
<polygon fill="#8dd3c7" stroke="black" points="680.66,-187 677.66,-191 656.66,-191 653.66,-187 597.34,-187 597.34,-151 680.66,-151 680.66,-187"/>
<text text-anchor="middle" x="639" y="-164.8" font-family="Times,serif" font-size="14.00">AppModule</text>
</g>
<!-- AppComponent&#45;&gt;AppModule -->
<g id="edge1" class="edge">
<title>AppComponent&#45;&gt;AppModule</title>
<path fill="none" stroke="black" d="M980,-122.11C980,-141.34 980,-169 980,-169 980,-169 690.81,-169 690.81,-169"/>
<polygon fill="black" stroke="black" points="690.81,-165.5 680.81,-169 690.81,-172.5 690.81,-165.5"/>
</g>
<!-- ClienteCadastrarComponent -->
<g id="node2" class="node">
<title>ClienteCadastrarComponent</title>
<polygon fill="#ffffb3" stroke="black" points="909.91,-122 734.09,-122 734.09,-86 909.91,-86 909.91,-122"/>
<text text-anchor="middle" x="822" y="-99.8" font-family="Times,serif" font-size="14.00">ClienteCadastrarComponent</text>
</g>
<!-- ClienteCadastrarComponent&#45;&gt;AppModule -->
<g id="edge2" class="edge">
<title>ClienteCadastrarComponent&#45;&gt;AppModule</title>
<path fill="none" stroke="black" d="M822,-122.03C822,-138.4 822,-160 822,-160 822,-160 690.98,-160 690.98,-160"/>
<polygon fill="black" stroke="black" points="690.98,-156.5 680.98,-160 690.98,-163.5 690.98,-156.5"/>
</g>
<!-- ClienteListarComponent -->
<g id="node3" class="node">
<title>ClienteListarComponent</title>
<polygon fill="#ffffb3" stroke="black" points="716.42,-122 561.58,-122 561.58,-86 716.42,-86 716.42,-122"/>
<text text-anchor="middle" x="639" y="-99.8" font-family="Times,serif" font-size="14.00">ClienteListarComponent</text>
</g>
<!-- ClienteListarComponent&#45;&gt;AppModule -->
<g id="edge3" class="edge">
<title>ClienteListarComponent&#45;&gt;AppModule</title>
<path fill="none" stroke="black" d="M639,-122.11C639,-122.11 639,-140.99 639,-140.99"/>
<polygon fill="black" stroke="black" points="635.5,-140.99 639,-150.99 642.5,-140.99 635.5,-140.99"/>
</g>
<!-- MenuInicialComponent -->
<g id="node4" class="node">
<title>MenuInicialComponent</title>
<polygon fill="#ffffb3" stroke="black" points="543.75,-122 394.25,-122 394.25,-86 543.75,-86 543.75,-122"/>
<text text-anchor="middle" x="469" y="-99.8" font-family="Times,serif" font-size="14.00">MenuInicialComponent</text>
</g>
<!-- MenuInicialComponent&#45;&gt;AppModule -->
<g id="edge4" class="edge">
<title>MenuInicialComponent&#45;&gt;AppModule</title>
<path fill="none" stroke="black" d="M469,-122.03C469,-138.4 469,-160 469,-160 469,-160 586.98,-160 586.98,-160"/>
<polygon fill="black" stroke="black" points="586.98,-163.5 596.98,-160 586.98,-156.5 586.98,-163.5"/>
</g>
<!-- ServicoCadastrarComponent -->
<g id="node5" class="node">
<title>ServicoCadastrarComponent</title>
<polygon fill="#ffffb3" stroke="black" points="375.73,-122 198.27,-122 198.27,-86 375.73,-86 375.73,-122"/>
<text text-anchor="middle" x="287" y="-99.8" font-family="Times,serif" font-size="14.00">ServicoCadastrarComponent</text>
</g>
<!-- ServicoCadastrarComponent&#45;&gt;AppModule -->
<g id="edge5" class="edge">
<title>ServicoCadastrarComponent&#45;&gt;AppModule</title>
<path fill="none" stroke="black" d="M287,-122.11C287,-141.34 287,-169 287,-169 287,-169 587.24,-169 587.24,-169"/>
<polygon fill="black" stroke="black" points="587.24,-172.5 597.24,-169 587.24,-165.5 587.24,-172.5"/>
</g>
<!-- ServicoListarComponent -->
<g id="node6" class="node">
<title>ServicoListarComponent</title>
<polygon fill="#ffffb3" stroke="black" points="180.25,-122 23.75,-122 23.75,-86 180.25,-86 180.25,-122"/>
<text text-anchor="middle" x="102" y="-99.8" font-family="Times,serif" font-size="14.00">ServicoListarComponent</text>
</g>
<!-- ServicoListarComponent&#45;&gt;AppModule -->
<g id="edge6" class="edge">
<title>ServicoListarComponent&#45;&gt;AppModule</title>
<path fill="none" stroke="black" d="M102,-122.29C102,-144.21 102,-178 102,-178 102,-178 587.31,-178 587.31,-178"/>
<polygon fill="black" stroke="black" points="587.31,-181.5 597.31,-178 587.31,-174.5 587.31,-181.5"/>
</g>
<!-- AppComponent  -->
<g id="node9" class="node">
<title>AppComponent </title>
<polygon fill="#80b1d3" stroke="black" points="693.44,-252 584.56,-252 584.56,-216 693.44,-216 693.44,-252"/>
<text text-anchor="middle" x="639" y="-229.8" font-family="Times,serif" font-size="14.00">AppComponent </text>
</g>
<!-- AppModule&#45;&gt;AppComponent  -->
<g id="edge8" class="edge">
<title>AppModule&#45;&gt;AppComponent </title>
<path fill="none" stroke="black" stroke-dasharray="1,5" d="M639,-187.11C639,-187.11 639,-205.99 639,-205.99"/>
<polygon fill="black" stroke="black" points="635.5,-205.99 639,-215.99 642.5,-205.99 635.5,-205.99"/>
</g>
<!-- AppRoutingModule -->
<g id="node8" class="node">
<title>AppRoutingModule</title>
<polygon fill="#8dd3c7" stroke="black" points="1185.27,-122 1182.27,-126 1161.27,-126 1158.27,-122 1056.73,-122 1056.73,-86 1185.27,-86 1185.27,-122"/>
<text text-anchor="middle" x="1121" y="-99.8" font-family="Times,serif" font-size="14.00">AppRoutingModule</text>
</g>
<!-- AppRoutingModule&#45;&gt;AppModule -->
<g id="edge7" class="edge">
<title>AppRoutingModule&#45;&gt;AppModule</title>
<path fill="none" stroke="black" d="M1121,-122.29C1121,-144.21 1121,-178 1121,-178 1121,-178 690.93,-178 690.93,-178"/>
<polygon fill="black" stroke="black" points="690.93,-174.5 680.93,-178 690.93,-181.5 690.93,-174.5"/>
</g>
</g>
</svg>
