<?xml version="1.0" encoding="UTF-8" standalone="no"?>
<!DOCTYPE svg PUBLIC "-//W3C//DTD SVG 1.1//EN"
 "http://www.w3.org/Graphics/SVG/1.1/DTD/svg11.dtd">
<!-- Generated by graphviz version 2.47.0 (20210316.0004)
 -->
<!-- Title: dependencies Pages: 1 -->
<svg width="1217pt" height="284pt"
 viewBox="0.00 0.00 1217.00 284.00" xmlns="http://www.w3.org/2000/svg" xmlns:xlink="http://www.w3.org/1999/xlink">
<g id="graph0" class="graph" transform="scale(1 1) rotate(0) translate(4 280)">
<title>dependencies</title>
<polygon fill="white" stroke="transparent" points="-4,4 -4,-280 1213,-280 1213,4 -4,4"/>
<text text-anchor="start" x="583.51" y="-42.4" font-family="Times-12" font-weight="bold" font-size="14.00">Legend</text>
<polygon fill="#ffffb3" stroke="transparent" points="370.5,-10 370.5,-30 390.5,-30 390.5,-10 370.5,-10"/>
<text text-anchor="start" x="394.13" y="-15.4" font-family="Times-12" font-size="14.00"> &#160;Declarations</text>
<polygon fill="#8dd3c7" stroke="transparent" points="483.5,-10 483.5,-30 503.5,-30 503.5,-10 483.5,-10"/>
<text text-anchor="start" x="507.23" y="-15.4" font-family="Times-12" font-size="14.00"> &#160;Module</text>
<polygon fill="#80b1d3" stroke="transparent" points="569.5,-10 569.5,-30 589.5,-30 589.5,-10 569.5,-10"/>
<text text-anchor="start" x="593.28" y="-15.4" font-family="Times-12" font-size="14.00"> &#160;Bootstrap</text>
<polygon fill="#fdb462" stroke="transparent" points="666.5,-10 666.5,-30 686.5,-30 686.5,-10 666.5,-10"/>
<text text-anchor="start" x="690.17" y="-15.4" font-family="Times-12" font-size="14.00"> &#160;Providers</text>
<polygon fill="#fb8072" stroke="transparent" points="762.5,-10 762.5,-30 782.5,-30 782.5,-10 762.5,-10"/>
<text text-anchor="start" x="786.23" y="-15.4" font-family="Times-12" font-size="14.00"> &#160;Exports</text>
<g id="clust1" class="cluster">
<title>cluster_AppModule</title>
<polygon fill="none" stroke="black" stroke-dasharray="1,5" points="8,-70 8,-268 1201,-268 1201,-70 8,-70"/>
</g>
<g id="clust2" class="cluster">
<title>cluster_AppModule_declarations</title>
<polygon fill="none" stroke="black" points="168,-78 168,-130 1193,-130 1193,-78 168,-78"/>
</g>
<g id="clust9" class="cluster">
<title>cluster_AppModule_imports</title>
<polygon fill="none" stroke="black" points="16,-78 16,-130 160,-130 160,-78 16,-78"/>
</g>
<g id="clust11" class="cluster">
<title>cluster_AppModule_bootstrap</title>
<polygon fill="none" stroke="black" points="559,-208 559,-260 683,-260 683,-208 559,-208"/>
</g>
<!-- AppComponent -->
<g id="node1" class="node">
<title>AppComponent</title>
<polygon fill="#ffffb3" stroke="black" points="1184.94,-122 1079.06,-122 1079.06,-86 1184.94,-86 1184.94,-122"/>
<text text-anchor="middle" x="1132" y="-99.8" font-family="Times,serif" font-size="14.00">AppComponent</text>
</g>
<!-- AppModule -->
<g id="node7" class="node">
<title>AppModule</title>
<polygon fill="#8dd3c7" stroke="black" points="662.66,-187 659.66,-191 638.66,-191 635.66,-187 579.34,-187 579.34,-151 662.66,-151 662.66,-187"/>
<text text-anchor="middle" x="621" y="-164.8" font-family="Times,serif" font-size="14.00">AppModule</text>
</g>
<!-- AppComponent&#45;&gt;AppModule -->
<g id="edge1" class="edge">
<title>AppComponent&#45;&gt;AppModule</title>
<path fill="none" stroke="black" d="M1132,-122.29C1132,-144.21 1132,-178 1132,-178 1132,-178 672.82,-178 672.82,-178"/>
<polygon fill="black" stroke="black" points="672.82,-174.5 662.82,-178 672.82,-181.5 672.82,-174.5"/>
</g>
<!-- ClienteCadastrarComponent -->
<g id="node2" class="node">
<title>ClienteCadastrarComponent</title>
<polygon fill="#ffffb3" stroke="black" points="1061.91,-122 886.09,-122 886.09,-86 1061.91,-86 1061.91,-122"/>
<text text-anchor="middle" x="974" y="-99.8" font-family="Times,serif" font-size="14.00">ClienteCadastrarComponent</text>
</g>
<!-- ClienteCadastrarComponent&#45;&gt;AppModule -->
<g id="edge2" class="edge">
<title>ClienteCadastrarComponent&#45;&gt;AppModule</title>
<path fill="none" stroke="black" d="M974,-122.11C974,-141.34 974,-169 974,-169 974,-169 672.88,-169 672.88,-169"/>
<polygon fill="black" stroke="black" points="672.88,-165.5 662.88,-169 672.88,-172.5 672.88,-165.5"/>
</g>
<!-- ClienteListarComponent -->
<g id="node3" class="node">
<title>ClienteListarComponent</title>
<polygon fill="#ffffb3" stroke="black" points="868.42,-122 713.58,-122 713.58,-86 868.42,-86 868.42,-122"/>
<text text-anchor="middle" x="791" y="-99.8" font-family="Times,serif" font-size="14.00">ClienteListarComponent</text>
</g>
<!-- ClienteListarComponent&#45;&gt;AppModule -->
<g id="edge3" class="edge">
<title>ClienteListarComponent&#45;&gt;AppModule</title>
<path fill="none" stroke="black" d="M791,-122.03C791,-138.4 791,-160 791,-160 791,-160 673.02,-160 673.02,-160"/>
<polygon fill="black" stroke="black" points="673.02,-156.5 663.02,-160 673.02,-163.5 673.02,-156.5"/>
</g>
<!-- MenuInicialComponent -->
<g id="node4" class="node">
<title>MenuInicialComponent</title>
<polygon fill="#ffffb3" stroke="black" points="695.75,-122 546.25,-122 546.25,-86 695.75,-86 695.75,-122"/>
<text text-anchor="middle" x="621" y="-99.8" font-family="Times,serif" font-size="14.00">MenuInicialComponent</text>
</g>
<!-- MenuInicialComponent&#45;&gt;AppModule -->
<g id="edge4" class="edge">
<title>MenuInicialComponent&#45;&gt;AppModule</title>
<path fill="none" stroke="black" d="M621,-122.11C621,-122.11 621,-140.99 621,-140.99"/>
<polygon fill="black" stroke="black" points="617.5,-140.99 621,-150.99 624.5,-140.99 617.5,-140.99"/>
</g>
<!-- ServicoCadastrarComponent -->
<g id="node5" class="node">
<title>ServicoCadastrarComponent</title>
<polygon fill="#ffffb3" stroke="black" points="527.73,-122 350.27,-122 350.27,-86 527.73,-86 527.73,-122"/>
<text text-anchor="middle" x="439" y="-99.8" font-family="Times,serif" font-size="14.00">ServicoCadastrarComponent</text>
</g>
<!-- ServicoCadastrarComponent&#45;&gt;AppModule -->
<g id="edge5" class="edge">
<title>ServicoCadastrarComponent&#45;&gt;AppModule</title>
<path fill="none" stroke="black" d="M439,-122.03C439,-138.4 439,-160 439,-160 439,-160 569.25,-160 569.25,-160"/>
<polygon fill="black" stroke="black" points="569.25,-163.5 579.25,-160 569.25,-156.5 569.25,-163.5"/>
</g>
<!-- ServicoListarComponent -->
<g id="node6" class="node">
<title>ServicoListarComponent</title>
<polygon fill="#ffffb3" stroke="black" points="332.25,-122 175.75,-122 175.75,-86 332.25,-86 332.25,-122"/>
<text text-anchor="middle" x="254" y="-99.8" font-family="Times,serif" font-size="14.00">ServicoListarComponent</text>
</g>
<!-- ServicoListarComponent&#45;&gt;AppModule -->
<g id="edge6" class="edge">
<title>ServicoListarComponent&#45;&gt;AppModule</title>
<path fill="none" stroke="black" d="M254,-122.11C254,-141.34 254,-169 254,-169 254,-169 569.26,-169 569.26,-169"/>
<polygon fill="black" stroke="black" points="569.26,-172.5 579.26,-169 569.26,-165.5 569.26,-172.5"/>
</g>
<!-- AppComponent  -->
<g id="node9" class="node">
<title>AppComponent </title>
<polygon fill="#80b1d3" stroke="black" points="675.44,-252 566.56,-252 566.56,-216 675.44,-216 675.44,-252"/>
<text text-anchor="middle" x="621" y="-229.8" font-family="Times,serif" font-size="14.00">AppComponent </text>
</g>
<!-- AppModule&#45;&gt;AppComponent  -->
<g id="edge8" class="edge">
<title>AppModule&#45;&gt;AppComponent </title>
<path fill="none" stroke="black" stroke-dasharray="1,5" d="M621,-187.11C621,-187.11 621,-205.99 621,-205.99"/>
<polygon fill="black" stroke="black" points="617.5,-205.99 621,-215.99 624.5,-205.99 617.5,-205.99"/>
</g>
<!-- AppRoutingModule -->
<g id="node8" class="node">
<title>AppRoutingModule</title>
<polygon fill="#8dd3c7" stroke="black" points="152.27,-122 149.27,-126 128.27,-126 125.27,-122 23.73,-122 23.73,-86 152.27,-86 152.27,-122"/>
<text text-anchor="middle" x="88" y="-99.8" font-family="Times,serif" font-size="14.00">AppRoutingModule</text>
</g>
<!-- AppRoutingModule&#45;&gt;AppModule -->
<g id="edge7" class="edge">
<title>AppRoutingModule&#45;&gt;AppModule</title>
<path fill="none" stroke="black" d="M88,-122.29C88,-144.21 88,-178 88,-178 88,-178 569.18,-178 569.18,-178"/>
<polygon fill="black" stroke="black" points="569.18,-181.5 579.18,-178 569.18,-174.5 569.18,-181.5"/>
</g>
</g>
</svg>
